<svg width="500" height="1000" viewBox="0 0 500 1000" fill="none" xmlns="http://www.w3.org/2000/svg">
<mask id="path-1-inside-1_58_2387" fill="white">
<path d="M500 901C447.471 901 395.457 890.654 346.927 870.552C298.396 850.45 254.301 820.986 217.157 783.843C180.014 746.699 150.55 702.603 130.448 654.073C110.346 605.543 100 553.529 100 501C100 448.471 110.346 396.457 130.448 347.926C150.55 299.396 180.014 255.3 217.157 218.157C254.301 181.014 298.397 151.55 346.927 131.448C395.457 111.346 447.472 101 500 101L500 501L500 901Z"/>
</mask>
<path d="M500 901C447.471 901 395.457 890.654 346.927 870.552C298.396 850.45 254.301 820.986 217.157 783.843C180.014 746.699 150.55 702.603 130.448 654.073C110.346 605.543 100 553.529 100 501C100 448.471 110.346 396.457 130.448 347.926C150.55 299.396 180.014 255.3 217.157 218.157C254.301 181.014 298.397 151.55 346.927 131.448C395.457 111.346 447.472 101 500 101L500 501L500 901Z" stroke="#6B6B6B" mask="url(#path-1-inside-1_58_2387)"/>
<mask id="path-2-inside-2_58_2387" fill="white">
<path d="M500 802C460.603 802 421.593 794.24 385.195 779.164C348.797 764.087 315.725 741.99 287.868 714.132C260.01 686.274 237.912 653.203 222.836 616.805C207.76 580.407 200 541.396 200 502C200 462.603 207.76 423.592 222.836 387.195C237.913 350.797 260.011 317.725 287.868 289.868C315.726 262.01 348.798 239.912 385.195 224.836C421.593 209.76 460.604 202 500 202L500 502L500 802Z"/>
</mask>
<path d="M500 802C460.603 802 421.593 794.24 385.195 779.164C348.797 764.087 315.725 741.99 287.868 714.132C260.01 686.274 237.912 653.203 222.836 616.805C207.76 580.407 200 541.396 200 502C200 462.603 207.76 423.592 222.836 387.195C237.913 350.797 260.011 317.725 287.868 289.868C315.726 262.01 348.798 239.912 385.195 224.836C421.593 209.76 460.604 202 500 202L500 502L500 802Z" stroke="#6B6B6B" mask="url(#path-2-inside-2_58_2387)"/>
<mask id="path-3-inside-3_58_2387" fill="white">
<path d="M500 700C446.957 700 396.086 678.929 358.579 641.421C321.071 603.914 300 553.043 300 500C300 446.957 321.071 396.086 358.579 358.579C396.086 321.071 446.957 300 500 300L500 500L500 700Z"/>
</mask>
<path d="M500 700C446.957 700 396.086 678.929 358.579 641.421C321.071 603.914 300 553.043 300 500C300 446.957 321.071 396.086 358.579 358.579C396.086 321.071 446.957 300 500 300L500 500L500 700Z" stroke="black" mask="url(#path-3-inside-3_58_2387)"/>
<path d="M500 700C446.957 700 396.086 678.929 358.579 641.421C321.071 603.914 300 553.043 300 500C300 446.957 321.071 396.086 358.579 358.579C396.086 321.071 446.957 300 500 300L500 500L500 700Z" stroke="#6B6B6B" mask="url(#path-3-inside-3_58_2387)"/>
<mask id="path-4-inside-4_58_2387" fill="white">
<path d="M500 1000C434.339 1000 369.321 987.067 308.658 961.94C247.995 936.812 192.876 899.983 146.447 853.553C100.017 807.124 63.1875 752.004 38.0602 691.342C12.9328 630.679 -3.31361e-05 565.661 0 500C3.31362e-05 434.339 12.933 369.321 38.0604 308.658C63.1877 247.995 100.018 192.876 146.447 146.446C192.876 100.017 247.996 63.1874 308.659 38.0601C369.322 12.9328 434.34 -6.34019e-05 500 2.33086e-10L500 500L500 1000Z"/>
</mask>
<path d="M500 1000C434.339 1000 369.321 987.067 308.658 961.94C247.995 936.812 192.876 899.983 146.447 853.553C100.017 807.124 63.1875 752.004 38.0602 691.342C12.9328 630.679 -3.31361e-05 565.661 0 500C3.31362e-05 434.339 12.933 369.321 38.0604 308.658C63.1877 247.995 100.018 192.876 146.447 146.446C192.876 100.017 247.996 63.1874 308.659 38.0601C369.322 12.9328 434.34 -6.34019e-05 500 2.33086e-10L500 500L500 1000Z" stroke="#6B6B6B" mask="url(#path-4-inside-4_58_2387)"/>
</svg>
